# xmcd
#
# Track frame offsets: 
#        150
#        14228
#        31677
#        47024
#        67335
#        85503
#        103044
#        122361
#        134482
#        151253
#
# Disc length: 2322 seconds
#
# Revision: 0
# Processed by: cddbd v1.5.2PL0 Copyright (c) Steve Scherf et al.
# Submitted via: ExactAudioCopy v1.0b1
#
DISCID=7e09100a
DTITLE=Paul Batto, Jr. - Ain't But One Way
DYEAR=2010
DGENRE=Blues
TTITLE0=Whatcha Gonna Do
TTITLE1=Put Your Load Down
TTITLE2=Lord, Keep Your Child
TTITLE3=Through The Fire
TTITLE4=Katcha
TTITLE5=Down On Memory Lane
TTITLE6=Smilin'
TTITLE7=Watch Your Hairy Toe
TTITLE8=Love At Last
TTITLE9=Ain't But One Way
EXTD=
EXTT0=
EXTT1=
EXTT2=
EXTT3=
EXTT4=
EXTT5=
EXTT6=
EXTT7=
EXTT8=
EXTT9=
PLAYORDER=
